<svg preserveAspectRatio="none" width="100%" height="100%" overflow="visible" style="display: block;" viewBox="0 0 102.4 102.4" fill="none" xmlns="http://www.w3.org/2000/svg">
<g id="ic_num_circle_2.svg" clip-path="url(#clip0_0_11)">
<g id="Ellipse 5">
<path id="Vector" d="M51.2002 1.25C78.7867 1.25011 101.15 23.6136 101.15 51.2002C101.15 78.7867 78.7867 101.15 51.2002 101.15C23.6136 101.15 1.25011 78.7867 1.25 51.2002C1.25 23.6136 23.6136 1.25 51.2002 1.25Z" fill="var(--fill-0, #E36901)" stroke="var(--stroke-0, #231815)" stroke-width="2.5"/>
</g>
<path id="Path 36352" d="M41.8281 65.5995H60.0681V61.8363H53.0025C51.6201 61.8363 49.8537 61.9515 48.3945 62.1051C54.3849 56.3835 58.7241 50.7387 58.7241 45.2795C58.7949 44.1436 58.6227 43.0057 58.2187 41.9417C57.8147 40.8777 57.1884 39.9121 56.3815 39.1095C55.5746 38.3069 54.6058 37.6856 53.5397 37.2873C52.4736 36.8889 51.3348 36.7227 50.1993 36.7995C48.5409 36.8157 46.9073 37.2036 45.4187 37.9346C43.9301 38.6656 42.6244 39.7212 41.5977 41.0235L44.0937 43.4811C44.7403 42.5863 45.5725 41.8416 46.5335 41.2982C47.4945 40.7547 48.5616 40.4253 49.6617 40.3323C52.8105 40.3323 54.4617 42.4443 54.4617 45.5163C54.4617 50.1563 50.1609 55.6539 41.8217 63.0267L41.8281 65.5995Z" fill="var(--fill-0, #231815)"/>
</g>
<defs>
<clipPath id="clip0_0_11">
<rect width="102.4" height="102.4" fill="white"/>
</clipPath>
</defs>
</svg>
