<svg preserveAspectRatio="none" width="100%" height="100%" overflow="visible" style="display: block;" viewBox="0 0 102.4 102.4" fill="none" xmlns="http://www.w3.org/2000/svg">
<g id="ic_num_circle_3.svg" clip-path="url(#clip0_0_15)">
<g id="Ellipse 5">
<path id="Vector" d="M51.2002 1.25C78.7867 1.25011 101.15 23.6136 101.15 51.2002C101.15 78.7867 78.7867 101.15 51.2002 101.15C23.6136 101.15 1.25011 78.7867 1.25 51.2002C1.25 23.6136 23.6136 1.25 51.2002 1.25Z" fill="var(--fill-0, #E36901)" stroke="var(--stroke-0, #231815)" stroke-width="2.5"/>
</g>
<path id="Path 36353" d="M50.8137 66.099C55.9977 66.099 60.2537 63.1038 60.2537 57.9966C60.2613 56.323 59.6822 54.6996 58.617 53.4088C57.5518 52.1179 56.0679 51.2412 54.4233 50.931V50.739C55.8497 50.3146 57.0985 49.4361 57.9799 48.2371C58.8613 47.038 59.3271 45.5839 59.3065 44.0958C59.3065 39.411 55.7289 36.7998 50.6665 36.7998C47.6286 36.8638 44.73 38.0864 42.5641 40.2174L44.8681 42.9822C46.3243 41.3842 48.3481 40.4194 50.5065 40.2942C51.0704 40.2386 51.6397 40.3049 52.1758 40.4885C52.7118 40.6721 53.2022 40.9688 53.6137 41.3584C54.0252 41.748 54.3481 42.2215 54.5606 42.7468C54.7732 43.2721 54.8704 43.8369 54.8457 44.403C54.8457 47.2446 53.0025 49.363 47.4345 49.363V52.627C53.8089 52.627 55.8057 54.6622 55.8057 57.811C55.8057 60.7294 53.6169 62.4958 50.4297 62.4958C49.1605 62.4692 47.9108 62.1783 46.7604 61.6416C45.6099 61.105 44.584 60.3344 43.7481 59.379L41.5977 62.2206C42.7532 63.5061 44.1786 64.5204 45.7718 65.1908C47.365 65.8613 49.0866 66.1714 50.8137 66.099Z" fill="var(--fill-0, #231815)"/>
</g>
<defs>
<clipPath id="clip0_0_15">
<rect width="102.4" height="102.4" fill="white"/>
</clipPath>
</defs>
</svg>
